<svg version="1.1" xmlns="http://www.w3.org/2000/svg" xmlns:xlink="http://www.w3.org/1999/xlink" width="48" height="48"><defs><linearGradient x1="5.32533" y1="4.71098" x2="58.66219" y2="58.80441" gradientUnits="userSpaceOnUse" id="color-1"><stop offset="0.46" stop-color="#000000" stop-opacity="0.48"></stop><stop offset="1" stop-color="#000000" stop-opacity="0"></stop></linearGradient><filter id="dropshadow-base"><feColorMatrix type="matrix" values="0 0 0 0 0  0 0 0 0 0  0 0 0 0 0  0 0 0 .8 0"></feColorMatrix> <feOffset dx="0" dy="1"></feOffset> <feGaussianBlur stdDeviation="1"></feGaussianBlur> <feComposite in="SourceGraphic"></feComposite></filter><filter id="dropshadow-banner" x="-10%" y="-10%" width="120%" height="130%"><feColorMatrix type="matrix" values="0 0 0 0 0  0 0 0 0 0  0 0 0 0 0  0 0 0 .4 0"></feColorMatrix> <feOffset dx="0" dy="1"></feOffset> <feGaussianBlur stdDeviation="0.5"></feGaussianBlur> <feComposite in="SourceGraphic"></feComposite></filter></defs><g fill="none" fill-rule="nonzero" stroke="none" stroke-width="none" stroke-linecap="butt" stroke-linejoin="miter" stroke-miterlimit="10" stroke-dasharray="" stroke-dashoffset="0" font-family="none" font-weight="none" font-size="none" text-anchor="none" style="mix-blend-mode: normal"><path d="M2,24c0,-12.15026 9.84974,-22 22,-22c12.15026,0 22,9.84974 22,22c0,12.15026 -9.84974,22 -22,22c-12.15026,0 -22,-9.84974 -22,-22z" id="base 1 9" fill="#ff0800" stroke-width="1"></path><path d="M10.49609,37.64342c-2.96464,-2.96464 -4.79733,-7.23669 -5.17076,-12.38333l16.61701,16.61701c0.00747,0.1029 0.01552,0.20545 0.02415,0.30765c0.04584,0.00032 0.09175,0.00048 0.13774,0.00049l0.62225,-1.56585l-3.99556,-3.99556l2.84942,-1.79668l-3.41807,-3.41807l-12.29966,-12.48867c0.46649,-1.9276 1.20786,-3.76816 2.19844,-5.45784l10.83463,10.83463l-6.96608,-13.68033l10.52212,8.72683l0.01177,0.01177l0.00612,0.00348l6.54608,5.434l4.09394,4.09394l0.82525,-1.54287l-3.17641,-2.11693l-16.61701,-16.61701c2.00564,-1.13332 7.88822,-3.43606 10.14406,-3.7236l6.86128,6.86128l-3.53703,-7.03677l-0.00002,-0.00002v-0.00002l0.00002,0.00002c3.33752,0.77995 6.29501,2.49415 8.65024,4.84937l9.08336,9.08336c0.4289,1.71454 0.65662,3.50881 0.65662,5.35626c0,12.15026 -9.84974,22 -22,22c-2.06763,0 -4.06864,-0.28523 -5.96582,-0.81849z" fill="url(#color-1)" stroke-width="1"></path><path d="M24.28553,4.88651c-2.25583,0.28754 -8.13841,2.59028 -10.14405,3.7236l18.51546,12.33969zM27.60976,4.71098l9.41616,18.73301l4.82225,3.02683c0.12499,-0.89811 0.19082,-1.80439 0.19701,-2.71223c-0.008,-9.15789 -6.01104,-17.07891 -14.43542,-19.04761zM11.92961,10.61688l11.67728,22.93245l-4.87598,3.0745l-13.40559,-11.36374c0.73784,10.16875 7.17231,16.9233 16.7789,16.92514c0.10752,-0.00508 -0.1074,0.00678 0,0l6.91148,-17.39228l-6.54608,-5.434l-0.0179,-0.01017v-0.00508zM8.06106,13.46258c-0.99058,1.68968 -1.73196,3.53023 -2.19845,5.45784l12.29966,12.48866zM34.31704,26.79495l-0.13432,0.08574l-8.1391,15.2167c4.91957,-1.93196 12.82972,-6.05638 14.74339,-11.2413z" id="path3769 1 1" fill="none" stroke-width="0"></path><path d="M32.65694,20.94979l-18.51546,-12.33969c2.00564,-1.13331 7.88821,-3.43605 10.14405,-3.7236zM42.04518,23.75859c-0.00619,0.90784 -0.07202,1.81412 -0.19701,2.71223l-4.82225,-3.02683l-9.41616,-18.73301c8.42437,1.9687 14.42742,9.88972 14.43542,19.04761zM22.45171,19.3437v0.00508l0.0179,0.01017l6.54608,5.434l-6.91148,17.39228c-9.60659,-0.00185 -16.04106,-6.7564 -16.7789,-16.92514l13.40559,11.36374l4.87598,-3.0745l-11.67728,-22.93245zM18.16227,31.40908l-12.29966,-12.48866c0.46648,-1.92761 1.20787,-3.76816 2.19845,-5.45784zM40.787,30.85609c-1.91367,5.18492 -9.82382,9.30933 -14.74339,11.2413l8.1391,-15.2167l0.13432,-0.08574zM22.10421,42.18523c0.10752,-0.00508 -0.1074,0.00678 0,0z" id="path3769 1 1" fill="#ffffff" stroke-width="0"></path><path d="M2,24c0,-12.15026 9.84974,-22 22,-22c12.15026,0 22,9.84974 22,22c0,12.15026 -9.84974,22 -22,22c-12.15026,0 -22,-9.84974 -22,-22z" id="base 1 5 1" fill="none" stroke-width="1"></path><path d="M2,24c0,-12.15026 9.84974,-22 22,-22c12.15026,0 22,9.84974 22,22c0,12.15026 -9.84974,22 -22,22c-12.15026,0 -22,-9.84974 -22,-22z" id="base 1 1 1" fill="none" stroke-width="1"></path><g fill="#000000" stroke-width="1" font-family="Roboto, sans-serif" font-weight="400" font-size="14" text-anchor="start"></g><rect x="2" y="2" width="44" height="22" fill="none" stroke-width="1"></rect><path d="M2,24v-22h44v22z" fill="none" stroke-width="1"></path><path d="M2,24v-22h44v22z" fill="none" stroke-width="1"></path><path d="M2,24v-22h44v22z" fill="none" stroke-width="1"></path><path d="M2,24v-22h44v22z" fill="none" stroke-width="1"></path><g id="SVGRoot 1 1" fill="#000000" stroke-width="1" font-family="Roboto, sans-serif" font-weight="400" font-size="14" text-anchor="start"><g id="layer1 1 1"></g></g><rect x="2" y="2" width="44" height="22" fill="none" stroke-width="1"></rect><path d="M2,24v-22h44v22z" fill="none" stroke-width="1"></path><path d="M2,24v-22h44v22z" fill="none" stroke-width="1"></path><path d="M2,24v-22h44v22z" fill="none" stroke-width="1"></path><path d="M2,24v-22h44v22z" fill="none" stroke-width="1"></path></g></svg>